Patient4_TMGait_0pt3_01_right_05_GRF.mot
version=1
nRows=46
nColumns=19
inDegrees=no
endheader
time	F1x	F1y	F1z	M1x	M1y	M1z	F2x	F2y	F2z	M2x	M2y	M2z	EC1x	EC1y	EC1z	EC2x	EC2y	EC2z
7.78	6.3234	763.305	57.3893	-285.4142	-56.4673	815.8976	-7.7339	3.8526	-3.4625	2.3005	5.7717	3.8415	-0.0592	0.0182	-0.0073	-0.0462	0.0165	0.9585
7.7992	2.8876	782.8331	59.3132	-293.0906	-59.1553	835.2721	-5.4548	4.0154	-2.4928	2.0328	4.155	4.1086	-0.0592	0.0182	-0.0073	-0.0462	0.0165	0.9585
7.8184	0.12255	806.5785	61.0525	-302.5591	-61.3789	858.1616	-3.3352	3.955	-1.6013	1.7358	2.6523	4.1466	-0.0592	0.0182	-0.0073	-0.0462	0.0165	0.9585
7.8376	-1.5895	832.7287	62.3341	-313.1855	-62.7231	882.5329	-1.5962	3.7951	-0.88242	1.4689	1.4244	4.0724	-0.0592	0.0182	-0.0073	-0.0462	0.0165	0.9585
7.8569	-2.0247	858.4908	62.9777	-323.9172	-62.9142	905.4514	-0.30714	3.6174	-0.35901	1.2604	0.5189	3.9663	-0.0592	0.0182	-0.0073	-0.0462	0.0165	0.9585
7.8761	-1.1408	880.3065	62.9245	-333.3481	-61.874	923.335	0.5576	3.4552	-0.01231	1.1117	-0.087692	3.8613	-0.0592	0.0182	-0.0073	-0.0462	0.0165	0.9585
7.8953	0.93286	894.3677	62.2276	-339.9246	-59.7156	932.4824	1.0725	3.3006	0.19223	1.0068	-0.45235	3.7492	-0.0592	0.0182	-0.0073	-0.0462	0.0165	0.9585
7.9145	3.9383	897.4499	61.0137	-342.2889	-56.6865	929.8984	1.3283	3.1109	0.29226	0.91829	-0.63997	3.5796	-0.0592	0.0182	-0.0073	-0.0462	0.0165	0.9585
7.9337	7.5521	887.7446	59.4456	-339.6314	-53.105	914.0891	1.4112	2.8162	0.32418	0.81099	-0.7103	3.2759	-0.0592	0.0182	-0.0073	-0.0462	0.0165	0.9585
7.9529	11.4622	865.4842	57.6823	-331.9577	-49.279	885.6241	1.3946	2.3254	0.32242	0.64426	-0.71668	2.7411	-0.0592	0.0182	-0.0073	-0.0462	0.0165	0.9585
7.9721	15.4351	833.1475	55.8561	-320.1824	-45.4469	847.2709	1.333	1.5374	0.31676	0.3763	-0.70435	1.8639	-0.0592	0.0182	-0.0073	-0.0462	0.0165	0.9585
7.9914	19.3465	795.1144	54.0762	-305.9963	-41.7632	803.5913	1.2637	0.36308	0.32552	-0.027435	-0.70534	0.54437	-0.0592	0.0182	-0.0073	-0.0462	0.0165	0.9585
8.0106	23.1866	756.846	52.4405	-291.539	-38.312	760.087	1.2106	-1.2475	0.35948	-0.5851	-0.73893	-1.2754	-0.0592	0.0182	-0.0073	-0.0462	0.0165	0.9585
8.0298	27.0304	723.783	51.0436	-278.9595	-35.1319	722.1073	1.1886	-3.2582	0.42349	-1.2823	-0.81499	-3.5566	-0.0592	0.0182	-0.0073	-0.0462	0.0165	0.9585
8.049	30.9675	700.2232	49.9783	-269.9716	-32.2512	693.7831	1.2029	-5.4878	0.51792	-2.0529	-0.93341	-6.093	-0.0592	0.0182	-0.0073	-0.0462	0.0165	0.9585
8.0682	35.061	688.4993	49.3246	-265.5215	-29.6981	677.2717	1.2496	-7.5437	0.63572	-2.756	-1.0826	-8.4379	-0.0592	0.0182	-0.0073	-0.0462	0.0165	0.9585
8.0874	39.2964	688.5898	49.1311	-265.6269	-27.5102	672.4508	1.3129	-8.7388	0.76063	-3.1473	-1.2365	-9.8081	-0.0592	0.0182	-0.0073	-0.0462	0.0165	0.9585
8.1066	43.5338	698.1724	49.4066	-269.3921	-25.7497	677.0347	1.3671	-8.0118	0.86494	-2.8533	-1.3524	-8.996	-0.0592	0.0182	-0.0073	-0.0462	0.0165	0.9585
8.1259	47.5304	713.1178	50.0977	-275.2032	-24.4752	687.0666	1.3752	-3.8955	0.90038	-1.3586	-1.3594	-4.3426	-0.0592	0.0182	-0.0073	-0.0462	0.0165	0.9585
8.1451	50.9892	728.2568	51.057	-281.0284	-23.6867	697.6598	1.2854	5.4457	0.79482	1.9794	-1.1526	6.2282	-0.0592	0.0182	-0.0073	-0.0462	0.0165	0.9585
8.1643	53.58	738.1804	52.0659	-284.7324	-23.3344	703.7632	1.0309	22.0543	0.45431	7.8703	-0.59811	25.0386	-0.0592	0.0182	-0.0073	-0.0462	0.0165	0.9585
8.1835	54.9864	738.0882	52.8635	-284.4232	-23.3265	700.9421	0.53389	47.8265	-0.2361	16.9649	0.46123	54.2507	-0.0592	0.0182	-0.0073	-0.0462	0.0165	0.9585
8.2027	54.9716	724.5868	53.1592	-278.7784	-23.5135	686.1044	-0.36881	83.9611	-1.4163	29.6624	2.2363	95.2375	-0.0592	0.0182	-0.0073	-0.0462	0.0165	0.9585
8.2219	53.4233	696.1873	52.6624	-267.2472	-23.6926	657.9277	-2.1634	130.2617	-3.2818	45.8642	5.104	147.7784	-0.0592	0.0182	-0.0073	-0.0462	0.0165	0.9585
8.2411	50.3936	653.4286	51.1358	-250.104	-23.6348	616.9351	-5.5556	184.4366	-6.0803	64.7261	9.5595	209.2722	-0.0592	0.0182	-0.0073	-0.0462	0.0165	0.9585
8.2604	46.1675	598.8174	48.4571	-228.4147	-23.1132	565.3993	-10.5153	242.797	-9.9812	84.9125	15.7469	275.4651	-0.0592	0.0182	-0.0073	-0.0462	0.0165	0.9585
8.2796	41.2403	536.3671	44.6939	-203.8275	-21.976	506.9031	-16.3552	302.5303	-14.7964	105.4156	23.1994	343.0212	-0.0592	0.0182	-0.0073	-0.0462	0.0165	0.9585
8.2988	36.1274	470.4833	40.0853	-178.1154	-20.2051	445.3578	-22.2366	362.0044	-20.1238	125.6689	31.1732	409.9519	-0.0592	0.0182	-0.0073	-0.0462	0.0165	0.9585
8.318	31.1482	404.911	34.9236	-152.7567	-17.9001	384.1077	-27.4242	419.7825	-25.5302	145.1945	38.9363	474.5245	-0.0592	0.0182	-0.0073	-0.0462	0.0165	0.9585
8.3372	26.382	342.3706	29.5041	-128.7884	-15.2617	325.6223	-31.3742	474.2353	-30.6595	163.4593	45.9171	534.8209	-0.0592	0.0182	-0.0073	-0.0462	0.0165	0.9585
8.3564	21.7968	284.7082	24.1352	-106.8736	-12.5514	271.6104	-33.7913	523.8599	-35.2631	179.9839	51.755	589.1251	-0.0592	0.0182	-0.0073	-0.0462	0.0165	0.9585
8.3756	17.369	233.1308	19.1237	-87.4093	-10.0362	223.212	-34.6816	567.6557	-39.1615	194.473	56.275	636.3663	-0.0592	0.0182	-0.0073	-0.0462	0.0165	0.9585
8.3949	13.1449	188.3727	14.7296	-70.6049	-7.9289	181.1307	-34.3258	605.2834	-42.2354	206.8643	59.4674	676.2847	-0.0592	0.0182	-0.0073	-0.0462	0.0165	0.9585
8.4141	9.2438	150.7525	11.1212	-56.5191	-6.3418	145.6696	-33.1227	636.9946	-44.4249	217.2915	61.43	709.3132	-0.0592	0.0182	-0.0073	-0.0462	0.0165	0.9585
8.4333	5.8052	120.0883	8.3568	-45.042	-5.2837	116.6594	-31.442	663.2798	-45.7461	225.9493	62.3295	736.1499	-0.0592	0.0182	-0.0073	-0.0462	0.0165	0.9585
8.4525	2.9105	95.6069	6.3835	-35.8632	-4.6874	93.3779	-29.5551	684.5359	-46.3232	232.9695	62.4077	757.3584	-0.0592	0.0182	-0.0073	-0.0462	0.0165	0.9585
8.4717	0.55809	76.0247	5.0486	-28.5011	-4.4277	74.624	-27.6078	701.0128	-46.3631	238.4079	61.9369	773.2983	-0.0592	0.0182	-0.0073	-0.0462	0.0165	0.9585
8.4909	-1.2983	59.9198	4.1496	-22.4326	-4.3513	59.0733	-25.6221	712.9651	-46.0806	242.3143	61.1464	784.2926	-0.0592	0.0182	-0.0073	-0.0462	0.0165	0.9585
8.5101	-2.7003	46.1738	3.4917	-17.2495	-4.3054	45.6943	-23.5551	720.7935	-45.6208	244.7993	60.1652	790.797	-0.0592	0.0182	-0.0073	-0.0462	0.0165	0.9585
8.5294	-3.6364	34.1814	2.9237	-12.7346	-4.1499	33.9516	-21.3722	725.0501	-45.0337	246.0452	59.0219	793.4277	-0.0592	0.0182	-0.0073	-0.0462	0.0165	0.9585
8.5486	-4.0388	23.791	2.3616	-8.8362	-3.7848	23.738	-19.1103	726.3747	-44.3158	246.2804	57.7114	792.911	-0.0592	0.0182	-0.0073	-0.0462	0.0165	0.9585
8.5678	-3.8666	15.1185	1.7894	-5.5942	-3.1833	15.1851	-16.8943	725.4264	-43.4639	245.7482	56.2561	790.0015	-0.0592	0.0182	-0.0073	-0.0462	0.0165	0.9585
8.587	-3.2325	8.3439	1.2446	-3.07	-2.4268	8.477	-14.9101	722.9177	-42.5103	244.7116	54.7356	785.4944	-0.0592	0.0182	-0.0073	-0.0462	0.0165	0.9585
8.6062	-2.4061	3.5135	0.7822	-1.276	-1.6737	3.6675	-13.3669	719.7909	-41.5306	243.5115	53.285	780.4029	-0.0592	0.0182	-0.0073	-0.0462	0.0165	0.9585
8.6254	-1.5932	0.41229	0.42829	-0.12944	-1.0301	0.55759	-12.4677	717.3938	-40.6199	242.6261	52.0625	776.1363	-0.0592	0.0182	-0.0073	-0.0462	0.0165	0.9585
8.6446	-0.90348	-1.3162	0.18272	0.50432	-0.53847	-1.1959	-12.3376	717.4293	-39.8626	242.652	51.1932	774.4297	-0.0592	0.0182	-0.0073	-0.0462	0.0165	0.9585
